<svg id="svg" version="1.1" xmlns="http://www.w3.org/2000/svg" xmlns:xlink="http://www.w3.org/1999/xlink" width="400" height="567.4285714285713" viewBox="0, 0, 400,567.4285714285713"><g id="svgg"><path id="path0" d="M357.988 15.371 C 354.132 16.334,351.706 18.920,351.100 22.713 C 350.816 24.487,350.410 25.061,349.086 25.561 C 346.835 26.410,346.753 29.126,348.929 30.712 C 350.822 32.091,350.186 33.613,346.833 35.730 C 345.589 36.515,344.571 37.521,344.571 37.966 C 344.571 38.830,346.071 40.571,346.815 40.571 C 347.060 40.571,347.955 41.214,348.803 42.000 C 349.732 42.861,351.023 43.429,352.052 43.429 C 352.991 43.429,354.768 43.943,356.000 44.571 C 357.232 45.200,359.161 45.714,360.286 45.714 C 361.411 45.714,363.339 45.200,364.571 44.571 C 365.804 43.943,367.488 43.429,368.315 43.429 C 369.701 43.429,370.548 42.930,374.623 39.713 C 376.416 38.297,376.093 37.358,373.093 35.276 C 370.055 33.167,369.808 32.276,371.711 30.289 C 373.719 28.193,373.368 26.104,370.861 25.230 C 369.442 24.735,369.143 24.318,369.143 22.832 C 369.143 17.900,363.356 14.029,357.988 15.371 M365.486 19.086 C 367.243 20.843,367.429 21.341,367.429 24.300 L 367.429 27.571 369.121 27.233 C 371.637 26.730,371.900 27.931,369.671 29.749 L 367.739 31.326 368.710 33.361 C 369.243 34.480,370.585 35.982,371.690 36.698 C 374.046 38.224,374.170 38.640,372.429 39.175 C 371.721 39.393,370.683 40.053,370.121 40.642 C 369.558 41.232,368.455 41.714,367.669 41.714 C 366.883 41.714,365.232 42.229,364.000 42.857 C 361.174 44.299,359.398 44.299,356.571 42.857 C 355.339 42.229,353.559 41.714,352.614 41.714 C 351.482 41.714,350.689 41.325,350.286 40.571 C 349.949 39.943,349.362 39.425,348.980 39.420 C 346.610 39.390,346.635 38.299,349.055 36.228 C 352.693 33.115,353.109 31.553,350.805 29.672 C 348.691 27.946,348.975 26.738,351.383 27.219 C 352.857 27.514,352.982 27.416,352.741 26.155 C 351.366 18.964,360.370 13.970,365.486 19.086 M198.857 55.473 C 185.875 56.755,171.290 62.915,166.487 69.143 C 165.397 70.557,163.180 72.614,161.561 73.714 C 157.218 76.666,152.526 82.771,148.827 90.286 C 144.092 99.906,143.571 101.112,142.658 104.571 C 137.784 123.038,138.996 131.975,151.389 168.945 C 154.793 179.100,155.748 181.639,159.957 191.714 C 167.172 208.985,168.539 217.103,165.206 222.884 C 162.761 227.125,162.489 228.214,160.930 240.000 C 160.115 246.166,160.464 253.781,161.579 254.148 C 161.975 254.279,163.223 253.463,164.350 252.336 C 166.961 249.725,166.855 249.660,166.870 253.857 C 166.882 257.373,168.198 261.419,169.978 263.418 C 170.403 263.895,171.033 265.345,171.377 266.640 C 171.942 268.760,172.217 269.029,174.145 269.348 C 178.157 270.011,179.538 269.715,184.198 267.190 C 190.901 263.559,191.473 263.571,192.696 267.368 C 193.945 271.245,194.095 271.379,195.299 269.691 C 197.905 266.039,198.839 262.518,202.006 244.397 C 203.007 238.672,207.470 223.858,209.252 220.344 C 210.592 217.703,221.098 204.000,221.783 204.000 C 222.027 204.000,224.274 204.647,226.777 205.438 L 231.328 206.875 231.546 210.438 C 231.770 214.113,231.430 218.194,229.918 230.000 C 228.499 241.072,228.234 257.133,229.378 262.777 C 230.894 270.259,232.795 270.789,237.714 265.098 C 240.032 262.418,244.958 262.275,246.037 264.857 C 247.042 267.264,246.787 267.242,249.429 265.143 C 250.615 264.200,251.888 263.429,252.257 263.429 C 252.626 263.429,253.993 262.914,255.294 262.286 C 258.291 260.838,257.966 260.713,259.130 263.760 C 259.993 266.021,260.306 266.333,261.428 266.051 C 262.222 265.852,263.001 266.056,263.433 266.577 C 264.634 268.024,265.105 267.576,267.188 263.004 C 268.297 260.571,269.728 258.022,270.368 257.341 C 271.688 255.936,271.865 247.605,271.570 200.911 C 271.484 187.278,271.662 176.706,272.011 174.625 C 272.333 172.710,272.829 168.571,273.113 165.429 C 273.397 162.286,274.060 156.629,274.587 152.857 C 278.426 125.394,270.576 91.421,256.730 75.572 C 243.213 60.099,223.018 53.085,198.857 55.473 M165.098 84.749 C 168.487 87.561,177.038 88.193,189.981 86.586 L 196.819 85.737 198.485 87.297 C 203.177 91.688,205.729 94.879,208.733 100.111 C 212.619 106.878,212.655 106.656,207.972 104.727 C 200.268 101.552,183.714 104.776,183.714 109.451 C 183.714 110.991,185.841 110.866,192.207 108.952 C 198.604 107.028,203.328 106.969,209.143 108.741 L 213.429 110.048 214.228 113.034 C 215.209 116.698,215.163 116.747,211.452 115.952 C 208.273 115.270,201.396 115.700,200.829 116.616 C 200.650 116.906,199.718 117.143,198.758 117.143 C 195.758 117.143,190.512 127.128,190.316 133.210 C 190.228 135.933,200.083 136.642,209.254 134.571 C 212.734 133.786,215.678 133.143,215.794 133.143 C 216.252 133.143,214.613 152.904,213.915 155.801 C 213.669 156.823,213.940 157.101,215.524 157.442 C 220.077 158.426,221.640 159.743,221.296 162.307 C 221.011 164.432,221.179 164.846,223.143 166.857 C 226.760 170.562,225.263 174.874,218.341 180.685 C 199.727 196.310,195.253 198.807,185.801 198.843 C 181.058 198.861,179.032 197.838,175.257 193.517 C 170.850 188.471,163.689 177.840,162.057 173.923 C 156.826 161.359,155.174 155.692,154.304 147.338 C 153.998 144.402,153.574 141.139,153.362 140.086 L 152.977 138.172 154.538 139.733 C 156.545 141.740,164.267 141.572,170.000 139.396 C 175.428 137.336,175.428 136.514,170.000 138.103 C 168.936 138.415,168.920 138.363,169.763 137.362 C 170.261 136.770,171.000 135.450,171.404 134.429 C 172.284 132.204,172.234 132.212,174.140 133.980 C 174.976 134.755,175.759 135.288,175.882 135.166 C 177.106 133.941,169.647 126.047,165.019 123.670 C 160.332 121.263,152.807 121.995,150.447 125.088 C 149.860 125.857,149.748 125.670,149.732 123.894 C 149.675 117.186,154.564 113.714,164.070 113.714 C 168.587 113.714,169.415 113.374,168.800 111.772 C 168.065 109.856,157.795 109.039,154.044 110.599 C 153.117 110.984,153.015 110.883,153.396 109.956 C 153.645 109.352,154.815 106.157,155.997 102.857 C 162.763 83.962,163.172 83.150,165.098 84.749 M201.862 123.558 C 199.870 126.028,200.660 130.203,203.593 132.713 L 205.429 134.284 200.000 134.142 L 194.571 134.000 194.622 131.548 C 194.685 128.522,197.154 124.726,199.984 123.303 C 202.063 122.257,202.826 122.361,201.862 123.558 M207.423 123.136 C 208.932 124.954,206.382 127.198,204.708 125.524 C 203.866 124.682,203.877 124.512,204.841 123.446 C 206.094 122.061,206.491 122.014,207.423 123.136 M216.393 127.277 C 216.040 130.698,215.811 131.098,213.872 131.684 C 212.613 132.064,212.609 132.049,213.494 129.931 C 214.367 127.841,214.344 125.343,213.432 123.228 C 212.994 122.212,213.050 122.208,214.848 123.138 C 216.696 124.094,216.716 124.147,216.393 127.277 M160.257 129.982 C 158.997 132.996,159.231 134.929,161.136 137.240 C 163.083 139.602,162.670 140.078,159.087 139.601 C 153.712 138.887,152.562 133.563,156.949 129.710 C 159.795 127.212,161.360 127.340,160.257 129.982 M165.113 128.821 C 166.018 129.912,164.873 132.142,163.539 131.885 C 162.342 131.654,161.969 129.927,162.880 128.830 C 163.746 127.786,164.252 127.784,165.113 128.821 M206.485 131.161 C 206.308 131.623,205.934 132.000,205.653 132.000 C 205.067 132.000,204.964 130.655,205.508 130.111 C 206.118 129.501,206.829 130.266,206.485 131.161 M169.055 136.256 C 169.181 136.907,168.975 137.182,168.483 137.018 C 168.060 136.878,167.625 136.304,167.517 135.744 C 167.391 135.093,167.596 134.818,168.088 134.982 C 168.511 135.122,168.946 135.696,169.055 136.256 M177.312 165.563 C 171.641 165.962,169.363 171.000,172.584 176.019 C 176.830 182.636,181.799 182.256,191.105 174.603 C 196.608 170.077,196.600 170.141,191.836 168.627 C 189.883 168.006,186.767 166.968,184.911 166.321 C 183.055 165.673,181.255 165.190,180.911 165.249 C 180.567 165.307,178.948 165.448,177.312 165.563 M191.714 171.477 C 188.234 172.424,180.862 173.452,178.286 173.351 C 174.403 173.197,173.685 173.082,173.950 172.653 C 174.645 171.528,182.318 170.522,190.857 170.437 L 195.714 170.389 191.714 171.477 M195.143 304.525 C 192.180 305.841,183.517 308.794,179.143 309.979 C 172.658 311.736,170.442 313.080,170.057 315.489 C 169.869 316.660,169.394 317.739,169.001 317.887 C 168.500 318.074,168.613 318.406,169.378 318.994 C 170.352 319.743,170.407 320.152,169.887 322.781 C 169.490 324.789,169.491 326.545,169.891 328.292 C 170.621 331.481,170.192 331.946,167.740 330.625 C 166.680 330.054,165.570 329.736,165.276 329.918 C 164.981 330.100,164.252 329.855,163.656 329.374 C 162.655 328.566,162.790 328.520,165.416 328.765 C 168.549 329.059,167.810 327.728,164.458 327.042 C 163.610 326.868,162.196 325.991,161.315 325.093 C 159.018 322.750,158.593 323.054,160.383 325.758 C 161.870 328.006,161.517 329.795,159.796 328.731 C 159.489 328.542,159.440 328.700,159.684 329.094 C 159.921 329.478,160.453 329.663,160.866 329.504 C 161.279 329.346,162.554 329.694,163.699 330.278 C 164.844 330.862,166.762 331.505,167.961 331.708 C 170.492 332.135,170.854 333.409,170.861 341.937 C 170.864 344.486,171.126 348.757,171.444 351.429 C 171.762 354.100,172.536 360.755,173.164 366.217 C 174.629 378.959,176.241 387.697,182.350 416.000 C 182.995 418.986,183.777 422.714,184.088 424.286 C 184.776 427.762,185.559 428.635,188.390 429.087 C 190.140 429.366,190.777 429.830,191.612 431.432 L 192.653 433.429 192.296 431.641 L 191.940 429.853 194.970 429.488 C 206.124 428.141,211.949 428.474,218.857 430.855 C 226.328 433.429,227.313 433.548,229.209 432.105 C 229.958 431.535,231.543 430.481,232.730 429.763 L 234.889 428.458 236.143 430.052 C 236.833 430.929,238.138 432.304,239.043 433.109 C 239.948 433.913,241.749 435.520,243.045 436.680 C 244.342 437.839,245.529 438.661,245.685 438.506 C 245.840 438.351,245.589 437.984,245.126 437.692 C 244.338 437.193,244.776 436.883,245.954 437.107 C 246.243 437.162,246.181 436.848,245.816 436.408 C 245.451 435.969,245.343 435.399,245.576 435.142 C 245.809 434.884,245.679 434.859,245.286 435.085 C 244.865 435.327,244.571 435.181,244.571 434.730 C 244.571 434.309,243.778 433.665,242.809 433.299 C 241.386 432.762,241.119 432.405,241.423 431.446 C 241.685 430.621,241.569 430.305,241.043 430.414 C 240.627 430.501,240.351 430.247,240.431 429.850 C 240.596 429.029,237.156 421.627,236.340 421.048 C 236.045 420.839,236.812 420.401,238.045 420.074 C 245.710 418.042,248.948 417.801,249.960 419.185 C 250.540 419.977,250.967 419.849,253.568 418.098 C 255.191 417.006,256.838 416.006,257.228 415.876 C 258.272 415.528,257.021 409.314,253.285 396.286 C 250.308 385.908,249.212 381.914,247.950 376.857 C 247.636 375.600,246.888 373.029,246.289 371.143 C 245.250 367.878,244.141 364.249,238.917 347.026 C 237.658 342.876,236.245 338.740,235.776 337.834 C 235.308 336.928,234.269 333.602,233.468 330.443 C 232.668 327.284,230.954 322.163,229.659 319.064 C 226.542 311.598,226.390 310.857,227.967 310.857 C 228.651 310.857,229.051 310.600,228.857 310.286 C 228.663 309.971,227.777 309.714,226.889 309.714 C 226.000 309.714,224.537 309.330,223.637 308.861 C 222.737 308.391,221.437 308.005,220.748 308.004 C 220.059 308.002,219.337 307.743,219.143 307.429 C 218.949 307.114,218.291 306.857,217.681 306.857 C 217.071 306.857,216.571 306.585,216.571 306.252 C 216.571 305.919,216.336 305.792,216.048 305.970 C 215.760 306.148,214.796 306.003,213.905 305.647 C 208.854 303.630,198.545 303.013,195.143 304.525 M158.286 317.295 C 158.286 318.022,160.495 319.696,160.909 319.282 C 161.033 319.158,160.494 318.499,159.710 317.817 C 158.847 317.067,158.286 316.861,158.286 317.295 M166.935 319.286 C 166.880 320.590,167.112 321.143,167.714 321.143 C 168.186 321.143,168.571 320.886,168.571 320.571 C 168.571 320.257,168.332 320.000,168.040 320.000 C 167.747 320.000,167.397 319.421,167.260 318.714 C 167.081 317.785,166.991 317.943,166.935 319.286 M154.450 320.006 C 154.284 320.638,153.576 321.299,152.876 321.475 C 151.464 321.829,149.408 325.458,150.305 326.012 C 150.609 326.200,150.857 325.809,150.857 325.143 C 150.857 324.477,151.114 324.091,151.429 324.286 C 151.745 324.481,152.008 324.050,152.017 323.319 C 152.034 322.059,152.064 322.050,152.683 323.118 C 153.326 324.227,153.335 324.227,153.817 323.118 C 154.184 322.273,154.228 322.388,153.994 323.586 C 153.752 324.828,154.029 325.476,155.271 326.568 C 157.323 328.374,158.095 328.381,156.917 326.583 C 156.407 325.804,155.937 324.537,155.873 323.767 C 155.810 322.998,155.555 322.493,155.307 322.646 C 155.060 322.799,154.857 322.539,154.857 322.067 C 154.857 320.819,155.809 320.429,157.131 321.137 C 158.103 321.657,158.286 321.581,158.286 320.658 C 158.286 320.004,157.767 319.423,157.000 319.217 C 155.029 318.689,154.773 318.768,154.450 320.006 M162.011 319.411 C 161.827 319.708,162.457 320.355,163.410 320.847 C 164.363 321.340,165.143 321.509,165.143 321.223 C 165.143 320.398,162.387 318.803,162.011 319.411 M193.206 438.286 C 193.232 442.108,193.998 443.710,194.454 440.896 C 194.687 439.466,194.528 438.179,194.000 437.207 C 193.199 435.734,193.189 435.748,193.206 438.286 M272.571 460.668 C 274.946 463.063,279.508 466.887,278.000 465.219 C 277.057 464.176,275.257 462.531,274.000 461.563 C 272.743 460.596,272.100 460.193,272.571 460.668 M300.321 464.382 C 301.140 464.981,301.003 465.713,298.976 471.525 C 291.941 491.697,291.378 493.898,291.782 499.640 C 292.248 506.270,291.894 507.015,287.851 507.920 C 271.835 511.504,269.878 518.998,283.795 523.451 L 287.876 524.756 290.938 523.171 C 292.622 522.300,294.386 521.286,294.857 520.918 C 295.329 520.550,296.871 519.631,298.286 518.875 C 299.700 518.119,302.143 516.612,303.714 515.527 C 305.286 514.442,306.613 513.526,306.663 513.491 C 306.714 513.457,307.181 508.543,307.702 502.571 C 308.744 490.633,309.136 488.573,311.204 484.143 C 313.046 480.198,313.559 480.272,319.115 485.292 C 321.930 487.835,321.972 484.995,319.180 481.000 C 317.743 478.945,316.405 476.400,316.208 475.346 C 315.426 471.163,312.127 467.438,306.800 464.721 C 304.536 463.567,298.795 463.266,300.321 464.382 M283.678 471.715 C 285.667 474.646,286.074 474.993,284.967 472.816 C 284.477 471.850,283.642 470.700,283.111 470.259 C 282.581 469.819,282.836 470.474,283.678 471.715 M215.647 499.744 C 216.067 500.839,207.788 505.067,198.571 508.465 C 191.212 511.179,175.037 512.877,176.320 510.801 C 176.486 510.533,178.329 509.359,180.416 508.192 C 185.127 505.557,184.496 505.307,177.024 506.849 C 164.103 509.515,158.286 512.793,158.286 517.407 C 158.286 524.633,171.730 529.152,181.542 525.225 C 189.477 522.049,202.828 519.292,210.855 519.173 L 212.852 519.143 213.259 522.811 C 214.025 529.710,215.182 529.779,216.637 523.012 C 217.185 520.465,218.457 516.674,219.463 514.588 C 221.564 510.231,221.542 506.624,219.386 502.038 C 218.292 499.711,214.816 497.578,215.647 499.744 " stroke="none" fill="#000000" fill-rule="evenodd"></path></g></svg>