<svg id="svg" version="1.1" xmlns="http://www.w3.org/2000/svg" xmlns:xlink="http://www.w3.org/1999/xlink" width="400" height="400" viewBox="0, 0, 400,400"><g id="svgg"><path id="path0" d="M137.052 120.500 C 136.737 121.675,136.737 153.525,137.052 154.700 L 137.293 155.600 153.647 155.600 L 170.000 155.600 170.000 171.600 L 170.000 187.600 153.618 187.600 L 137.236 187.600 136.963 189.055 C 136.813 189.855,136.806 198.180,136.948 207.555 C 137.089 216.930,137.195 225.455,137.183 226.500 C 137.170 227.574,137.343 228.400,137.580 228.400 C 137.816 228.400,138.000 229.260,138.000 230.367 C 138.000 231.448,138.198 232.399,138.440 232.480 C 138.682 232.561,138.880 233.296,138.880 234.113 C 138.880 234.931,139.042 235.600,139.240 235.600 C 139.438 235.600,139.600 236.140,139.600 236.800 C 139.600 237.460,139.780 238.000,140.000 238.000 C 140.220 238.000,140.400 238.540,140.400 239.200 C 140.400 239.860,140.580 240.400,140.800 240.400 C 141.020 240.400,141.200 240.760,141.200 241.200 C 141.200 241.640,141.380 242.000,141.600 242.000 C 141.820 242.000,142.000 242.360,142.000 242.800 C 142.000 243.240,142.180 243.600,142.400 243.600 C 142.620 243.600,142.800 243.960,142.800 244.400 C 142.800 244.840,142.980 245.200,143.200 245.200 C 143.420 245.200,143.600 245.700,143.600 246.312 C 143.600 246.965,143.930 247.661,144.400 248.000 C 144.840 248.317,145.200 248.897,145.200 249.288 C 145.200 249.680,145.380 250.000,145.600 250.000 C 145.820 250.000,146.000 250.320,146.000 250.712 C 146.000 251.103,146.360 251.683,146.800 252.000 C 147.240 252.317,147.600 252.825,147.600 253.128 C 147.600 253.431,148.140 254.183,148.800 254.800 C 149.460 255.417,150.000 256.120,150.000 256.364 C 150.000 256.988,160.680 267.600,161.308 267.600 C 161.591 267.600,162.083 267.960,162.400 268.400 C 162.717 268.840,163.257 269.200,163.600 269.200 C 163.943 269.200,164.483 269.560,164.800 270.000 C 165.117 270.440,165.657 270.800,166.000 270.800 C 166.343 270.800,166.883 271.160,167.200 271.600 C 167.517 272.040,168.097 272.400,168.488 272.400 C 168.880 272.400,169.200 272.580,169.200 272.800 C 169.200 273.020,169.560 273.200,170.000 273.200 C 170.440 273.200,170.800 273.380,170.800 273.600 C 170.800 273.820,171.160 274.000,171.600 274.000 C 172.040 274.000,172.400 274.180,172.400 274.400 C 172.400 274.620,172.760 274.800,173.200 274.800 C 173.640 274.800,174.000 274.980,174.000 275.200 C 174.000 275.420,174.360 275.600,174.800 275.600 C 175.240 275.600,175.600 275.780,175.600 276.000 C 175.600 276.220,176.140 276.400,176.800 276.400 C 177.460 276.400,178.000 276.580,178.000 276.800 C 178.000 277.020,178.540 277.200,179.200 277.200 C 179.860 277.200,180.400 277.380,180.400 277.600 C 180.400 277.820,180.940 278.000,181.600 278.000 C 182.260 278.000,182.800 278.180,182.800 278.400 C 182.800 278.620,183.700 278.800,184.800 278.800 C 185.900 278.800,186.800 278.980,186.800 279.200 C 186.800 279.422,187.867 279.600,189.200 279.600 C 190.520 279.600,191.600 279.773,191.600 279.984 C 191.600 280.215,194.772 280.373,199.600 280.382 C 204.650 280.391,207.600 280.249,207.600 279.998 C 207.600 279.778,208.675 279.600,210.000 279.600 C 211.333 279.600,212.400 279.422,212.400 279.200 C 212.400 278.980,213.300 278.800,214.400 278.800 C 215.500 278.800,216.400 278.620,216.400 278.400 C 216.400 278.180,217.120 278.000,218.000 278.000 C 219.108 278.000,219.600 277.827,219.600 277.437 C 219.600 277.072,219.880 276.948,220.400 277.084 C 220.847 277.201,221.200 277.096,221.200 276.847 C 221.200 276.601,221.740 276.400,222.400 276.400 C 223.060 276.400,223.600 276.220,223.600 276.000 C 223.600 275.780,223.960 275.600,224.400 275.600 C 224.840 275.600,225.200 275.420,225.200 275.200 C 225.200 274.980,225.616 274.800,226.125 274.800 C 226.633 274.800,227.436 274.440,227.908 274.000 C 228.380 273.560,229.044 273.200,229.383 273.200 C 229.722 273.200,230.000 273.020,230.000 272.800 C 230.000 272.580,230.360 272.400,230.800 272.400 C 231.240 272.400,231.600 272.220,231.600 272.000 C 231.600 271.780,231.920 271.600,232.312 271.600 C 232.703 271.600,233.283 271.240,233.600 270.800 C 233.917 270.360,234.457 270.000,234.800 270.000 C 235.143 270.000,235.683 269.640,236.000 269.200 C 236.317 268.760,236.819 268.400,237.114 268.400 C 237.410 268.400,238.529 267.500,239.600 266.400 C 240.671 265.300,241.743 264.400,241.981 264.400 C 242.550 264.400,247.600 259.345,247.600 258.776 C 247.600 258.535,248.320 257.646,249.200 256.800 C 250.080 255.954,250.800 255.018,250.800 254.720 C 250.800 254.421,251.160 253.917,251.600 253.600 C 252.040 253.283,252.400 252.743,252.400 252.400 C 252.400 252.057,252.760 251.517,253.200 251.200 C 253.640 250.883,254.000 250.303,254.000 249.912 C 254.000 249.520,254.180 249.200,254.400 249.200 C 254.620 249.200,254.800 248.880,254.800 248.488 C 254.800 248.097,255.160 247.517,255.600 247.200 C 256.070 246.861,256.400 246.165,256.400 245.512 C 256.400 244.900,256.580 244.400,256.800 244.400 C 257.020 244.400,257.200 244.040,257.200 243.600 C 257.200 243.160,257.380 242.800,257.600 242.800 C 257.820 242.800,258.000 242.440,258.000 242.000 C 258.000 241.560,258.180 241.200,258.400 241.200 C 258.620 241.200,258.800 240.660,258.800 240.000 C 258.800 239.340,258.980 238.800,259.200 238.800 C 259.420 238.800,259.600 238.440,259.600 238.000 C 259.600 237.560,259.780 237.200,260.000 237.200 C 260.220 237.200,260.400 236.480,260.400 235.600 C 260.400 234.720,260.580 234.000,260.800 234.000 C 261.020 234.000,261.200 233.280,261.200 232.400 C 261.200 231.520,261.380 230.800,261.600 230.800 C 261.822 230.800,262.000 229.733,262.000 228.400 C 262.000 227.067,262.178 226.000,262.400 226.000 C 262.654 226.000,262.800 223.008,262.800 217.824 C 262.800 212.804,262.646 209.552,262.400 209.400 C 262.180 209.264,262.000 208.083,262.000 206.776 C 262.000 205.459,261.822 204.400,261.600 204.400 C 261.380 204.400,261.200 203.680,261.200 202.800 C 261.200 201.920,261.020 201.200,260.800 201.200 C 260.580 201.200,260.400 200.480,260.400 199.600 C 260.400 198.720,260.220 198.000,260.000 198.000 C 259.780 198.000,259.600 197.460,259.600 196.800 C 259.600 196.140,259.420 195.600,259.200 195.600 C 258.980 195.600,258.800 195.060,258.800 194.400 C 258.800 193.740,258.620 193.200,258.400 193.200 C 258.180 193.200,258.000 192.840,258.000 192.400 C 258.000 191.960,257.820 191.600,257.600 191.600 C 257.380 191.600,257.200 191.240,257.200 190.800 C 257.200 190.360,257.020 190.000,256.800 190.000 C 256.580 190.000,256.400 189.640,256.400 189.200 C 256.400 188.760,256.220 188.400,256.000 188.400 C 255.780 188.400,255.600 188.040,255.600 187.600 C 255.600 187.160,255.420 186.800,255.200 186.800 C 254.980 186.800,254.800 186.440,254.800 186.000 C 254.800 185.560,254.620 185.200,254.400 185.200 C 254.180 185.200,254.000 184.880,254.000 184.488 C 254.000 184.097,253.640 183.517,253.200 183.200 C 252.760 182.883,252.400 182.375,252.400 182.072 C 252.400 181.769,251.860 181.017,251.200 180.400 C 250.540 179.783,250.000 179.070,250.000 178.814 C 250.000 178.558,249.100 177.471,248.000 176.400 C 246.900 175.329,246.000 174.272,246.000 174.052 C 246.000 173.528,241.668 169.200,241.143 169.200 C 240.920 169.200,240.046 168.480,239.200 167.600 C 238.354 166.720,237.418 166.000,237.120 166.000 C 236.821 166.000,236.317 165.640,236.000 165.200 C 235.683 164.760,235.143 164.400,234.800 164.400 C 234.457 164.400,233.917 164.040,233.600 163.600 C 233.283 163.160,232.703 162.800,232.312 162.800 C 231.920 162.800,231.600 162.620,231.600 162.400 C 231.600 162.180,231.240 162.000,230.800 162.000 C 230.360 162.000,230.000 161.820,230.000 161.600 C 230.000 161.380,229.640 161.200,229.200 161.200 C 228.760 161.200,228.400 161.020,228.400 160.800 C 228.400 160.580,228.040 160.400,227.600 160.400 C 227.160 160.400,226.800 160.220,226.800 160.000 C 226.800 159.780,226.440 159.600,226.000 159.600 C 225.560 159.600,225.200 159.420,225.200 159.200 C 225.200 158.980,224.660 158.800,224.000 158.800 C 223.340 158.800,222.800 158.620,222.800 158.400 C 222.800 158.180,222.440 158.000,222.000 158.000 C 221.560 158.000,221.200 157.820,221.200 157.600 C 221.200 157.380,220.660 157.200,220.000 157.200 C 219.340 157.200,218.800 157.020,218.800 156.800 C 218.800 156.580,218.080 156.400,217.200 156.400 C 216.320 156.400,215.600 156.220,215.600 156.000 C 215.600 155.780,214.880 155.600,214.000 155.600 C 213.120 155.600,212.400 155.420,212.400 155.200 C 212.400 154.971,211.200 154.800,209.600 154.800 C 208.000 154.800,206.800 154.629,206.800 154.400 C 206.800 154.139,200.667 154.000,189.200 154.000 L 171.600 154.000 171.600 136.800 L 171.600 119.600 154.447 119.600 L 137.293 119.600 137.052 120.500 M203.800 189.600 C 203.936 189.820,204.847 190.000,205.824 190.000 C 206.801 190.000,207.600 190.180,207.600 190.400 C 207.600 190.620,208.140 190.800,208.800 190.800 C 209.460 190.800,210.000 190.980,210.000 191.200 C 210.000 191.420,210.360 191.600,210.800 191.600 C 211.240 191.600,211.600 191.780,211.600 192.000 C 211.600 192.220,211.960 192.400,212.400 192.400 C 212.840 192.400,213.200 192.580,213.200 192.800 C 213.200 193.020,213.488 193.200,213.840 193.200 C 214.191 193.200,214.983 193.740,215.600 194.400 C 216.217 195.060,216.923 195.600,217.169 195.600 C 217.795 195.600,222.000 199.868,222.000 200.503 C 222.000 200.789,222.360 201.283,222.800 201.600 C 223.240 201.917,223.600 202.497,223.600 202.888 C 223.600 203.280,223.780 203.600,224.000 203.600 C 224.220 203.600,224.400 203.960,224.400 204.400 C 224.400 204.840,224.580 205.200,224.800 205.200 C 225.020 205.200,225.200 205.560,225.200 206.000 C 225.200 206.440,225.380 206.800,225.600 206.800 C 225.820 206.800,226.000 207.340,226.000 208.000 C 226.000 208.660,226.180 209.200,226.400 209.200 C 226.620 209.200,226.800 209.920,226.800 210.800 C 226.800 211.680,226.980 212.400,227.200 212.400 C 227.446 212.400,227.600 214.400,227.600 217.600 C 227.600 220.800,227.446 222.800,227.200 222.800 C 226.980 222.800,226.800 223.520,226.800 224.400 C 226.800 225.280,226.620 226.000,226.400 226.000 C 226.180 226.000,226.000 226.360,226.000 226.800 C 226.000 227.240,225.820 227.600,225.600 227.600 C 225.380 227.600,225.200 227.960,225.200 228.400 C 225.200 228.840,225.020 229.200,224.800 229.200 C 224.580 229.200,224.400 229.560,224.400 230.000 C 224.400 230.440,224.220 230.800,224.000 230.800 C 223.780 230.800,223.600 231.120,223.600 231.512 C 223.600 231.903,223.240 232.483,222.800 232.800 C 222.360 233.117,222.000 233.611,222.000 233.897 C 222.000 234.532,217.795 238.800,217.169 238.800 C 216.923 238.800,216.217 239.340,215.600 240.000 C 214.983 240.660,214.191 241.200,213.840 241.200 C 213.488 241.200,213.200 241.380,213.200 241.600 C 213.200 241.820,212.840 242.000,212.400 242.000 C 211.960 242.000,211.600 242.180,211.600 242.400 C 211.600 242.620,211.240 242.800,210.800 242.800 C 210.360 242.800,210.000 242.980,210.000 243.200 C 210.000 243.420,209.460 243.600,208.800 243.600 C 208.140 243.600,207.600 243.780,207.600 244.000 C 207.600 244.220,206.700 244.400,205.600 244.400 C 204.500 244.400,203.600 244.580,203.600 244.800 C 203.600 245.040,202.000 245.200,199.600 245.200 C 197.200 245.200,195.600 245.040,195.600 244.800 C 195.600 244.580,194.700 244.400,193.600 244.400 C 192.500 244.400,191.600 244.220,191.600 244.000 C 191.600 243.780,191.060 243.600,190.400 243.600 C 189.740 243.600,189.200 243.420,189.200 243.200 C 189.200 242.980,188.840 242.800,188.400 242.800 C 187.960 242.800,187.600 242.620,187.600 242.400 C 187.600 242.180,187.280 242.000,186.888 242.000 C 186.497 242.000,185.917 241.640,185.600 241.200 C 185.283 240.760,184.791 240.400,184.507 240.400 C 183.779 240.400,176.400 232.941,176.400 232.205 C 176.400 231.872,176.220 231.600,176.000 231.600 C 175.780 231.600,175.600 231.240,175.600 230.800 C 175.600 230.360,175.420 230.000,175.200 230.000 C 174.980 230.000,174.800 229.640,174.800 229.200 C 174.800 228.760,174.620 228.400,174.400 228.400 C 174.180 228.400,174.000 228.040,174.000 227.600 C 174.000 227.160,173.820 226.800,173.600 226.800 C 173.380 226.800,173.200 226.206,173.200 225.480 C 173.200 224.754,173.005 223.965,172.767 223.727 C 172.528 223.488,172.333 222.462,172.333 221.447 C 172.333 220.431,172.168 219.600,171.967 219.600 C 171.751 219.600,171.600 213.345,171.600 204.400 L 171.600 189.200 187.576 189.200 C 197.796 189.200,203.642 189.344,203.800 189.600 " stroke="none" fill="#8c54fc" fill-rule="evenodd"></path><path id="path1" d="M136.909 219.200 C 136.909 220.190,136.987 220.595,137.082 220.100 C 137.178 219.605,137.178 218.795,137.082 218.300 C 136.987 217.805,136.909 218.210,136.909 219.200 " stroke="none" fill="#9054fc" fill-rule="evenodd"></path><path id="path2" d="M136.909 219.200 C 136.909 220.190,136.987 220.595,137.082 220.100 C 137.178 219.605,137.178 218.795,137.082 218.300 C 136.987 217.805,136.909 218.210,136.909 219.200 " stroke="none" fill="#9054fc" fill-rule="evenodd"></path><path id="path3" d="M136.909 219.200 C 136.909 220.190,136.987 220.595,137.082 220.100 C 137.178 219.605,137.178 218.795,137.082 218.300 C 136.987 217.805,136.909 218.210,136.909 219.200 " stroke="none" fill="#9054fc" fill-rule="evenodd"></path><path id="path4" d="M136.909 219.200 C 136.909 220.190,136.987 220.595,137.082 220.100 C 137.178 219.605,137.178 218.795,137.082 218.300 C 136.987 217.805,136.909 218.210,136.909 219.200 " stroke="none" fill="#9054fc" fill-rule="evenodd"></path></g></svg>